<svg width="21" height="21" viewBox="0 0 21 21" fill="none" xmlns="http://www.w3.org/2000/svg">
<path d="M10.7188 0.556641C8.74094 0.556641 6.80754 1.14313 5.16305 2.24194C3.51856 3.34076 2.23684 4.90254 1.47996 6.72981C0.723083 8.55707 0.525049 10.5677 0.910902 12.5075C1.29675 14.4474 2.24916 16.2292 3.64769 17.6277C5.04621 19.0262 6.82804 19.9786 8.76785 20.3645C10.7077 20.7503 12.7183 20.5523 14.5456 19.7954C16.3729 19.0386 17.9346 17.7568 19.0334 16.1123C20.1323 14.4679 20.7188 12.5345 20.7188 10.5566C20.7188 9.24342 20.4601 7.94306 19.9576 6.72981C19.455 5.51655 18.7184 4.41416 17.7898 3.48557C16.8612 2.55699 15.7588 1.82039 14.5456 1.31785C13.3323 0.815298 12.032 0.556641 10.7188 0.556641ZM10.7188 18.5566C9.1365 18.5566 7.58979 18.0874 6.27419 17.2084C4.9586 16.3293 3.93322 15.0799 3.32772 13.6181C2.72222 12.1563 2.56379 10.5478 2.87247 8.99592C3.18115 7.44407 3.94308 6.01861 5.0619 4.89979C6.18072 3.78097 7.60618 3.01904 9.15803 2.71036C10.7099 2.40168 12.3184 2.5601 13.7802 3.1656C15.242 3.77111 16.4915 4.79649 17.3705 6.11208C18.2496 7.42767 18.7188 8.97439 18.7188 10.5566C18.7188 12.6784 17.8759 14.7132 16.3756 16.2135C14.8753 17.7138 12.8405 18.5566 10.7188 18.5566Z" fill="#E62C2E"/>
<path d="M10.7188 15.5566C11.271 15.5566 11.7188 15.1089 11.7188 14.5566C11.7188 14.0044 11.271 13.5566 10.7188 13.5566C10.1665 13.5566 9.71875 14.0044 9.71875 14.5566C9.71875 15.1089 10.1665 15.5566 10.7188 15.5566Z" fill="#E62C2E"/>
<path d="M10.7188 5.55664C10.4535 5.55664 10.1992 5.662 10.0116 5.84953C9.82411 6.03707 9.71875 6.29142 9.71875 6.55664V11.5566C9.71875 11.8219 9.82411 12.0762 10.0116 12.2637C10.1992 12.4513 10.4535 12.5566 10.7188 12.5566C10.984 12.5566 11.2383 12.4513 11.4259 12.2637C11.6134 12.0762 11.7188 11.8219 11.7188 11.5566V6.55664C11.7188 6.29142 11.6134 6.03707 11.4259 5.84953C11.2383 5.662 10.984 5.55664 10.7188 5.55664Z" fill="#E62C2E"/>
</svg>
