<svg width="137" height="47" viewBox="0 0 137 47" fill="none" xmlns="http://www.w3.org/2000/svg">
<path fill-rule="evenodd" clip-rule="evenodd" d="M0.820312 46.3428H72.4095V0.886719H0.820312V46.3428Z" fill="#FFFFFE"/>
<path fill-rule="evenodd" clip-rule="evenodd" d="M2.01281 45.1766H71.2176V38.9727H2.01172L2.01281 45.1766Z" fill="#F1AD2B"/>
<path fill-rule="evenodd" clip-rule="evenodd" d="M2.01281 8.28404H71.2176V2.08008H2.01172L2.01281 8.28404ZM36.0188 15.1193L32.3707 32.1726H27.958L31.6062 15.1193H36.0188ZM54.5805 26.1314L56.9026 19.7264L58.2384 26.1314H54.5794H54.5805ZM59.5054 32.1726H63.585L60.0199 15.1193H56.2571C55.4084 15.1193 54.6941 15.6108 54.3784 16.3689L47.7572 32.1737H52.3905L53.3102 29.6266H58.9702L59.5054 32.1726ZM47.9877 26.6054C48.0062 22.1053 41.7651 21.8552 41.8066 19.8444C41.8208 19.2327 42.403 18.5828 43.6777 18.4157C44.3101 18.3349 46.0533 18.2683 48.0292 19.1792L48.8025 15.5617C47.7397 15.1772 46.3744 14.808 44.6749 14.808C40.3135 14.808 37.2454 17.1236 37.2203 20.444C37.193 22.8994 39.4124 24.2691 41.0814 25.0861C42.8017 25.9216 43.3784 26.4579 43.3708 27.205C43.3587 28.3497 41.9978 28.8554 40.7319 28.8751C38.5124 28.91 37.2258 28.2743 36.2001 27.797L35.3995 31.5358C36.4317 32.0087 38.3344 32.4205 40.3037 32.4413C44.9414 32.4413 47.9735 30.1508 47.9877 26.6054ZM29.7144 15.1193L22.5656 32.1726H17.9017L14.3847 18.5632C14.1706 17.7265 13.9849 17.4185 13.3361 17.0646C12.2756 16.4879 10.5236 15.9494 8.98353 15.6141L9.08839 15.1193H16.5954C17.5522 15.1193 18.4118 15.755 18.6314 16.8571L20.4893 26.7266L25.0789 15.1193H29.7144Z" fill="#182E66"/>
<path d="M89.5568 45.9953V43.0026C89.5744 42.7509 89.5383 42.4983 89.4509 42.2616C89.3636 42.025 89.2269 41.8095 89.05 41.6296C88.8739 41.4503 88.6614 41.3107 88.4269 41.2203C88.1923 41.1298 87.9411 41.0907 87.6902 41.1053C87.3616 41.084 87.0333 41.1516 86.7399 41.3009C86.4464 41.4503 86.1985 41.6758 86.0223 41.954C85.8618 41.6842 85.6312 41.4629 85.3551 41.3134C85.079 41.164 84.7675 41.0921 84.4539 41.1053C84.1804 41.0916 83.908 41.1499 83.6641 41.2743C83.4201 41.3986 83.213 41.5848 83.0634 41.8142V41.2244H82.0312V45.9953H83.0733V43.3707C83.051 43.2076 83.065 43.0417 83.1141 42.8847C83.1631 42.7276 83.2462 42.5833 83.3572 42.4619C83.5822 42.2172 83.9034 42.0851 84.2354 42.1037C84.9202 42.1037 85.2676 42.5526 85.2676 43.3608V46.015H86.3107V43.3718C86.267 43.0408 86.3718 42.7088 86.5958 42.4652C86.7062 42.3442 86.842 42.2491 86.9934 42.1866C87.1448 42.1241 87.3081 42.0958 87.4717 42.1037C88.1762 42.1037 88.5137 42.5526 88.5137 43.3608V46.015L89.5568 45.9953ZM104.979 41.2255H103.282V39.7783H102.24V41.2255H101.296V42.1736H102.26V44.369C102.26 45.4765 102.687 46.1351 103.908 46.1351C104.364 46.1367 104.812 46.0086 105.199 45.766L104.901 44.878C104.624 45.044 104.31 45.1368 103.988 45.1477C103.491 45.1477 103.303 44.8277 103.303 44.3493V42.1736H104.99L104.979 41.2255ZM113.786 41.1053C113.534 41.0982 113.285 41.1594 113.064 41.2825C112.844 41.4055 112.662 41.5859 112.536 41.8044V41.2255H111.513V45.9953H112.545V43.3215C112.545 42.5329 112.884 42.0938 113.538 42.0938C113.759 42.0905 113.978 42.131 114.183 42.214L114.502 41.2157C114.266 41.1304 114.017 41.086 113.766 41.0846L113.786 41.1064V41.1053ZM100.473 41.6045C99.8887 41.2552 99.2163 41.0818 98.5362 41.1053C97.3347 41.1053 96.5516 41.6842 96.5516 42.6323C96.5516 43.4111 97.1272 43.8895 98.19 44.0402L98.6858 44.109C99.2516 44.1898 99.5192 44.3384 99.5192 44.6082C99.5192 44.9774 99.1424 45.1871 98.4379 45.1871C97.8702 45.2036 97.3136 45.0277 96.8585 44.6879L96.3626 45.4962C96.9634 45.9189 97.6842 46.1362 98.4171 46.1155C99.7879 46.1155 100.582 45.4667 100.582 44.559C100.582 43.6503 99.9561 43.2811 98.9239 43.1315L98.4281 43.0616C97.9802 43.0015 97.6231 42.9119 97.6231 42.5919C97.6231 42.2729 97.9617 42.0337 98.5264 42.0337C99.0506 42.0403 99.5629 42.1812 100.016 42.4433L100.473 41.6045ZM128.128 41.1053C127.876 41.098 127.627 41.1591 127.406 41.2822C127.186 41.4053 127.003 41.5857 126.877 41.8044V41.2255H125.854V45.9953H126.887V43.3215C126.887 42.5329 127.225 42.0938 127.879 42.0938C128.1 42.0905 128.32 42.131 128.524 42.214L128.843 41.2157C128.607 41.1304 128.358 41.086 128.108 41.0846L128.127 41.1064L128.128 41.1053ZM114.825 43.6C114.812 43.935 114.869 44.2689 114.992 44.5805C115.116 44.8922 115.303 45.1746 115.541 45.4099C115.779 45.6446 116.063 45.8269 116.376 45.9451C116.688 46.0632 117.022 46.1146 117.356 46.0958C117.976 46.1272 118.585 45.924 119.063 45.5268L118.567 44.6879C118.211 44.9619 117.775 45.1125 117.326 45.1172C116.943 45.0851 116.587 44.9102 116.327 44.6273C116.068 44.3444 115.924 43.9742 115.925 43.5902C115.924 43.2062 116.068 42.836 116.327 42.5531C116.587 42.2702 116.943 42.0953 117.326 42.0632C117.774 42.0687 118.211 42.2194 118.567 42.4925L119.063 41.6547C118.585 41.2575 117.976 41.0543 117.356 41.0857C117.022 41.0668 116.688 41.118 116.376 41.2359C116.063 41.3539 115.779 41.536 115.541 41.7705C115.303 42.006 115.116 42.2884 114.992 42.6C114.869 42.9116 114.811 43.2454 114.824 43.5804V43.6H114.825ZM124.493 43.6V41.2255H123.461V41.8044C123.287 41.5778 123.06 41.3962 122.802 41.2746C122.543 41.1531 122.258 41.095 121.973 41.1053C121.646 41.1061 121.322 41.1712 121.021 41.2969C120.719 41.4227 120.445 41.6067 120.214 41.8383C119.984 42.07 119.801 42.3448 119.677 42.6471C119.553 42.9494 119.489 43.2732 119.49 43.6C119.489 43.927 119.552 44.2509 119.677 44.5533C119.801 44.8557 119.983 45.1306 120.214 45.3624C120.445 45.5942 120.719 45.7783 121.02 45.9041C121.322 46.03 121.646 46.0951 121.973 46.0958C122.551 46.1177 123.105 45.8566 123.461 45.3968V45.9757H124.493V43.6ZM120.652 43.6C120.673 43.2247 120.841 42.8727 121.118 42.6193C121.396 42.3659 121.762 42.2314 122.137 42.2445C122.513 42.2596 122.868 42.4213 123.126 42.6948C123.384 42.9684 123.525 43.3322 123.518 43.7082C123.514 43.9938 123.425 44.2718 123.262 44.5066C123.1 44.7414 122.871 44.9225 122.605 45.0268C122.339 45.1311 122.048 45.1538 121.769 45.0921C121.49 45.0304 121.236 44.887 121.039 44.6803C120.903 44.5364 120.799 44.3663 120.733 44.1804C120.666 43.9946 120.639 43.797 120.652 43.6ZM108.192 41.1053C107.532 41.1165 106.903 41.3893 106.445 41.8637C105.986 42.338 105.734 42.9751 105.745 43.635C105.749 43.9618 105.817 44.2848 105.945 44.5853C106.073 44.8859 106.26 45.1583 106.493 45.3868C106.727 45.6153 107.004 45.7956 107.307 45.9172C107.61 46.0389 107.935 46.0996 108.262 46.0958C108.976 46.1323 109.679 45.901 110.232 45.447L109.736 44.6781C109.343 44.9948 108.858 45.1696 108.356 45.1772C108.013 45.2061 107.673 45.1002 107.408 44.8821C107.143 44.664 106.973 44.3509 106.936 44.0096H110.46V43.6109C110.46 42.1135 109.537 41.1152 108.207 41.1152L108.192 41.1053ZM108.192 42.0337C108.347 42.0308 108.501 42.0585 108.645 42.1151C108.789 42.1717 108.921 42.2562 109.032 42.3637C109.144 42.4713 109.233 42.5997 109.295 42.7417C109.357 42.8838 109.39 43.0366 109.393 43.1915H106.912C106.929 42.8721 107.07 42.5719 107.306 42.3555C107.541 42.1391 107.852 42.0236 108.172 42.0337H108.192ZM134.059 43.6109V39.3086H133.066V41.8044C132.892 41.5778 132.666 41.3962 132.407 41.2746C132.148 41.1531 131.864 41.095 131.578 41.1053C131.251 41.1062 130.928 41.1714 130.626 41.2972C130.325 41.4231 130.051 41.6071 129.82 41.8387C129.59 42.0704 129.407 42.3452 129.283 42.6474C129.159 42.9496 129.095 43.2733 129.096 43.6C129.095 43.9269 129.159 44.2507 129.283 44.553C129.407 44.8554 129.589 45.1303 129.82 45.362C130.05 45.5938 130.324 45.7779 130.626 45.9038C130.927 46.0297 131.251 46.095 131.578 46.0958C132.157 46.1177 132.712 45.8566 133.066 45.3968V45.9757H134.06V43.6109H134.059ZM135.782 45.3018C135.909 45.3009 136.032 45.3494 136.125 45.4372C136.181 45.4914 136.222 45.5588 136.246 45.6333C136.269 45.7077 136.273 45.7868 136.258 45.8633C136.243 45.9398 136.209 46.0113 136.159 46.0712C136.109 46.1311 136.044 46.1775 135.972 46.2061C135.912 46.2325 135.847 46.2459 135.782 46.2455C135.688 46.2447 135.595 46.217 135.516 46.1658C135.437 46.1145 135.374 46.0417 135.335 45.956C135.299 45.869 135.289 45.773 135.308 45.6805C135.327 45.588 135.373 45.5033 135.44 45.4372C135.488 45.3921 135.544 45.357 135.605 45.3337C135.666 45.3105 135.732 45.2996 135.797 45.3018H135.782ZM135.782 46.145C135.83 46.1456 135.878 46.1362 135.923 46.1174C135.967 46.0986 136.007 46.0708 136.041 46.0357C136.103 45.9674 136.137 45.8784 136.137 45.7862C136.137 45.6939 136.103 45.6049 136.041 45.5366C135.99 45.4835 135.924 45.4474 135.852 45.4331C135.78 45.4188 135.706 45.4271 135.639 45.4569C135.594 45.4751 135.553 45.5022 135.519 45.5366C135.457 45.6049 135.422 45.6939 135.422 45.7862C135.422 45.8784 135.457 45.9674 135.519 46.0357C135.553 46.07 135.594 46.0971 135.639 46.1155C135.688 46.1373 135.743 46.1482 135.797 46.145H135.782ZM135.812 45.5519C135.859 45.5495 135.904 45.5634 135.941 45.5912C135.972 45.6174 135.988 45.6567 135.985 45.6961C135.986 45.7127 135.983 45.7293 135.978 45.7449C135.972 45.7606 135.963 45.7748 135.951 45.7867C135.922 45.8126 135.885 45.828 135.846 45.8304L135.99 45.9953H135.877L135.742 45.8315H135.699V45.9953H135.604V45.5562L135.811 45.5519H135.812ZM135.703 45.636V45.7561H135.812C135.832 45.7618 135.852 45.7618 135.871 45.7561C135.875 45.7492 135.877 45.7415 135.877 45.7337C135.877 45.726 135.875 45.7183 135.871 45.7113C135.875 45.7044 135.877 45.6967 135.877 45.689C135.877 45.6812 135.875 45.6735 135.871 45.6666C135.852 45.6609 135.832 45.6609 135.812 45.6666L135.703 45.636ZM130.242 43.6109C130.263 43.2355 130.43 42.8831 130.708 42.6295C130.986 42.3759 131.352 42.2412 131.727 42.2544C132.103 42.2692 132.459 42.4307 132.717 42.7043C132.975 42.9779 133.116 43.3418 133.109 43.718C133.105 44.0036 133.016 44.2816 132.853 44.5164C132.691 44.7513 132.462 44.9324 132.196 45.0366C131.93 45.1409 131.639 45.1636 131.36 45.1019C131.081 45.0402 130.827 44.8968 130.63 44.6901C130.494 44.5465 130.39 44.3766 130.323 44.1909C130.257 44.0052 130.229 43.8078 130.242 43.6109ZM95.3796 43.6109V41.2255H94.3474V41.8044C94.1727 41.5777 93.9463 41.396 93.6872 41.2744C93.4281 41.1528 93.1437 41.0948 92.8576 41.1053C92.5309 41.1062 92.2075 41.1714 91.9059 41.2972C91.6044 41.4231 91.3306 41.6071 91.1001 41.8387C90.8697 42.0704 90.6872 42.3452 90.5629 42.6474C90.4387 42.9496 90.3752 43.2733 90.376 43.6C90.375 43.9269 90.4384 44.2507 90.5626 44.553C90.6868 44.8554 90.8693 45.1303 91.0998 45.362C91.3302 45.5938 91.6041 45.7779 91.9057 45.9038C92.2073 46.0297 92.5308 46.095 92.8576 46.0958C93.4365 46.1177 93.9914 45.8566 94.3474 45.3968V45.9757H95.3796V43.6109ZM91.5371 43.6109C91.558 43.2355 91.7252 42.8831 92.0029 42.6295C92.2806 42.3759 92.6467 42.2412 93.0225 42.2544C93.3985 42.2692 93.7537 42.4307 94.012 42.7043C94.2703 42.9779 94.4111 43.3418 94.4042 43.718C94.3994 44.0944 94.2472 44.4539 93.9803 44.7194C93.7134 44.9848 93.3531 45.1351 92.9767 45.1379C92.7791 45.1416 92.583 45.1041 92.4007 45.0278C92.2185 44.9514 92.0542 44.8379 91.9183 44.6945C91.7818 44.5506 91.6767 44.3801 91.6094 44.1936C91.5421 44.0071 91.5141 43.8088 91.5272 43.6109H91.5382H91.5371Z" fill="#231F20"/>
<path d="M100.227 4.80273H115.863V33.0515H100.227V4.80273Z" fill="#FF5F00"/>
<path d="M101.217 18.93C101.212 16.2124 101.824 13.5291 103.007 11.0822C104.189 8.63517 105.911 6.48823 108.043 4.80291C100.716 -0.985996 90.1931 -0.141688 83.8712 6.74056C77.5482 13.6217 77.5482 24.2329 83.8712 31.1151C90.1931 37.9974 100.716 38.8406 108.043 33.0517C105.911 31.3671 104.19 29.221 103.007 26.7751C101.825 24.3291 101.212 21.6468 101.216 18.93H101.217Z" fill="#EB001B"/>
<path d="M136.958 18.9297C136.958 25.8076 133.051 32.0826 126.897 35.0874C123.882 36.5601 120.512 37.1505 117.176 36.7902C113.84 36.43 110.674 35.1339 108.043 33.0514C110.173 31.3651 111.894 29.2185 113.076 26.7725C114.259 24.3264 114.872 21.6444 114.871 18.9276C114.872 16.2105 114.259 13.5284 113.077 11.0821C111.894 8.63588 110.173 6.48906 108.043 4.80262C110.674 2.72016 113.84 1.42403 117.176 1.0638C120.512 0.703557 123.882 1.29389 126.897 2.76667C133.051 5.77254 136.958 12.0464 136.959 18.9254V18.9297H136.958ZM135.251 30.4442V29.5453H135.485V29.3596H134.894V29.5453H135.147V30.4442H135.251ZM136.398 30.4442V29.3596H136.219L136.011 30.134L135.802 29.3585H135.643V30.4442H135.772V29.6305L135.966 30.335H136.1L136.294 29.6305V30.4519L136.398 30.4442Z" fill="#F79E1B"/>
</svg>
