<svg width="20" height="19" viewBox="0 0 20 19" fill="transparent" xmlns="http://www.w3.org/2000/svg">
<path d="M16.7207 7.17773H9.22068C8.30021 7.17773 7.55402 7.92393 7.55402 8.8444V16.3444C7.55402 17.2649 8.30021 18.0111 9.22068 18.0111H16.7207C17.6412 18.0111 18.3873 17.2649 18.3873 16.3444V8.8444C18.3873 7.92393 17.6412 7.17773 16.7207 7.17773Z" stroke="#35679A" stroke-width="1.5" stroke-linecap="round" stroke-linejoin="round"/>
<path d="M4.22003 12.1771H3.3867C2.94467 12.1771 2.52075 12.0015 2.20819 11.6889C1.89563 11.3764 1.72003 10.9524 1.72003 10.5104V3.01042C1.72003 2.56839 1.89563 2.14447 2.20819 1.83191C2.52075 1.51934 2.94467 1.34375 3.3867 1.34375H10.8867C11.3287 1.34375 11.7526 1.51934 12.0652 1.83191C12.3778 2.14447 12.5534 2.56839 12.5534 3.01042V3.84375" stroke="#35679A" stroke-width="1.5" stroke-linecap="round" stroke-linejoin="round"/>
</svg>
