<svg width="18" height="19" viewBox="0 0 18 19" fill="transparent" xmlns="http://www.w3.org/2000/svg">
<path d="M12.9339 2.34426C13.1458 2.13232 13.3974 1.96421 13.6744 1.84951C13.9513 1.73482 14.248 1.67578 14.5478 1.67578C14.8475 1.67578 15.1443 1.73482 15.4212 1.84951C15.6981 1.96421 15.9497 2.13232 16.1616 2.34426C16.3735 2.55619 16.5417 2.80779 16.6563 3.0847C16.771 3.3616 16.8301 3.65838 16.8301 3.9581C16.8301 4.25782 16.771 4.5546 16.6563 4.83151C16.5417 5.10841 16.3735 5.36001 16.1616 5.57195L5.26815 16.4654L0.830078 17.6758L2.04046 13.2377L12.9339 2.34426Z" stroke-width="1.5" stroke-linecap="round" stroke-linejoin="round"/>
</svg>
