<svg width="50" height="66" viewBox="0 0 50 66" fill="none" xmlns="http://www.w3.org/2000/svg">
<path d="M37.0859 32.4453V36C37.0859 36.8379 36.3969 37.5234 35.5547 37.5234H14.1172C13.275 37.5234 12.5859 36.8379 12.5859 36V32.4453C12.5859 31.6074 13.275 30.9219 14.1172 30.9219H35.5547C36.3969 30.9219 37.0859 31.6074 37.0859 32.4453ZM35.5547 41.5859H14.1172C13.275 41.5859 12.5859 42.2715 12.5859 43.1094V46.6641C12.5859 47.502 13.275 48.1875 14.1172 48.1875H35.5547C36.3969 48.1875 37.0859 47.502 37.0859 46.6641V43.1094C37.0859 42.2715 36.3969 41.5859 35.5547 41.5859ZM49.3359 17.7061V59.8672C49.3359 63.2314 46.5924 65.9609 43.2109 65.9609H6.46094C3.07943 65.9609 0.335938 63.2314 0.335938 59.8672V7.05469C0.335938 3.69043 3.07943 0.960938 6.46094 0.960938H32.505C34.1255 0.960938 35.6823 1.6084 36.8307 2.75098L47.5367 13.4023C48.6852 14.5322 49.3359 16.0937 49.3359 17.7061ZM33.0026 7.5498V17.2109H42.7133L33.0026 7.5498ZM43.2109 59.8672V23.3047H29.9401C28.243 23.3047 26.8776 21.9463 26.8776 20.2578V7.05469H6.46094V59.8672H43.2109Z" fill="white"/>
</svg>
