<svg width="27" height="35" viewBox="0 0 27 35" fill="none" xmlns="http://www.w3.org/2000/svg">
<path d="M25.3813 7.46094L19.7005 1.88945C19.0911 1.2918 18.2651 0.953125 17.4052 0.953125H3.58594C1.79167 0.959766 0.335938 2.3875 0.335938 4.14727V31.7723C0.335938 33.532 1.79167 34.9598 3.58594 34.9598H23.0859C24.8802 34.9598 26.3359 33.532 26.3359 31.7723V9.71875C26.3359 8.87539 25.9906 8.05859 25.3813 7.46094ZM22.8219 9.45977H17.6693V4.40625L22.8219 9.45977ZM3.58594 31.7723V4.14727H14.4193V11.0535C14.4193 11.9367 15.1438 12.6473 16.0443 12.6473H23.0859V31.7723H3.58594ZM20.5266 22.2297C19.7005 21.4328 17.3443 21.652 16.1661 21.798C15.0016 21.1008 14.2229 20.1379 13.6745 18.7234C13.9385 17.6543 14.3583 16.0273 14.0401 15.0047C13.7557 13.2648 11.4807 13.4375 11.1557 14.6129C10.8578 15.682 11.1286 17.1695 11.6297 19.0688C10.9526 20.6559 9.94375 22.7875 9.23281 24.0094C7.87865 24.6934 6.05052 25.7492 5.77969 27.0773C5.55625 28.1266 7.5401 30.743 10.9323 25.0055C12.449 24.5141 14.101 23.9098 15.5635 23.6707C16.8432 24.348 18.3396 24.7996 19.3417 24.7996C21.0682 24.7996 21.2375 22.927 20.5266 22.2297ZM7.11354 27.3961C7.45885 26.4863 8.7724 25.4371 9.17188 25.0719C7.88542 27.084 7.11354 27.4426 7.11354 27.3961ZM12.6385 14.7391C13.1396 14.7391 13.0922 16.8707 12.7604 17.4484C12.4625 16.5254 12.4693 14.7391 12.6385 14.7391ZM10.9865 23.8102C11.6432 22.6879 12.2052 21.3531 12.6589 20.1777C13.2208 21.1805 13.9385 21.984 14.6969 22.5352C13.2885 22.8207 12.063 23.4051 10.9865 23.8102ZM19.8969 23.4781C19.8969 23.4781 19.5583 23.8766 17.3714 22.9602C19.7479 22.7875 20.1406 23.3188 19.8969 23.4781Z" fill="white"/>
</svg>
