<svg width="15" height="16" viewBox="0 0 15 16" fill="none" xmlns="http://www.w3.org/2000/svg">
<path d="M8.35109 9.62277C8.19876 9.80133 8.01506 9.94454 7.81095 10.0439C7.60685 10.1432 7.38651 10.1966 7.1631 10.2009C6.93968 10.2052 6.71776 10.1603 6.51058 10.0689C6.30339 9.97752 6.11518 9.84148 5.95718 9.6689C5.79918 9.49633 5.67462 9.29076 5.59093 9.06447C5.50724 8.83818 5.46614 8.59579 5.47009 8.35177C5.47403 8.10776 5.52293 7.86711 5.61387 7.64418C5.70482 7.42125 5.83594 7.22061 5.99942 7.05423M10.4698 11.9369C9.5217 12.7262 8.36723 13.1635 7.17525 13.1848C3.29278 13.1848 1.07422 8.3385 1.07422 8.3385C1.76413 6.93422 2.72102 5.70733 3.88069 4.74012L10.4698 11.9369ZM6.01051 3.63759C6.39228 3.53999 6.78316 3.4912 7.17525 3.4922C11.0577 3.4922 13.2763 8.3385 13.2763 8.3385C12.9396 9.02644 12.5381 9.6741 12.0783 10.271L6.01051 3.63759Z" stroke-width="1.5" stroke-linecap="round" stroke-linejoin="round"/>
<path d="M1.07422 1.67578L13.2763 15.0031" stroke-width="1.5" stroke-linecap="round" stroke-linejoin="round"/>
</svg>
