<svg width="27" height="27" viewBox="0 0 27 27" fill="none" xmlns="http://www.w3.org/2000/svg">
<mask id="mask0" mask-type="alpha" maskUnits="userSpaceOnUse" x="0" y="0" width="27" height="27">
<path d="M0.101562 13.0234V0.0234375H26.1016V26.0234H0.101562V13.0234Z" fill="white"/>
</mask>
<g mask="url(#mask0)">
<path fill-rule="evenodd" clip-rule="evenodd" d="M13.1016 24.0734C7.00856 24.0734 2.05156 19.1164 2.05156 13.0234C2.05156 6.93044 7.00856 1.97344 13.1016 1.97344C19.1946 1.97344 24.1516 6.93044 24.1516 13.0234C24.1516 19.1164 19.1946 24.0734 13.1016 24.0734ZM13.1016 0.0234375C5.92156 0.0234375 0.101562 5.84344 0.101562 13.0234C0.101562 20.2034 5.92156 26.0234 13.1016 26.0234C20.2816 26.0234 26.1016 20.2034 26.1016 13.0234C26.1016 5.84344 20.2816 0.0234375 13.1016 0.0234375Z" fill="#E62C2E"/>
</g>
<path fill-rule="evenodd" clip-rule="evenodd" d="M18.0099 8.77716L17.3459 8.11416C17.0729 7.84216 16.6279 7.84216 16.3509 8.11416L13.0939 11.3742L9.85594 8.13416C9.58294 7.86116 9.13794 7.86116 8.86094 8.13416L8.19694 8.79816C7.92394 9.07116 7.92394 9.51816 8.19694 9.79416L11.4369 13.0342L8.19994 16.2662C7.92694 16.5392 7.92694 16.9862 8.19994 17.2612L8.86394 17.9252C9.13794 18.1992 9.58394 18.1992 9.85894 17.9252L13.0949 14.6922L16.3379 17.9342C16.6119 18.2072 17.0579 18.2072 17.3339 17.9342L17.9959 17.2702C18.2689 16.9972 18.2689 16.5502 17.9959 16.2752L14.7539 13.0352L18.0109 9.77516C18.2839 9.50116 18.2839 9.05516 18.0109 8.77916" fill="#E62C2E"/>
</svg>
