<svg width="27" height="27" viewBox="0 0 27 27" fill="none" xmlns="http://www.w3.org/2000/svg">
<path d="M19.1016 12.0234V9.02344L15.1016 13.0234L19.1016 17.0234V14.0234H22.1016V12.0234H19.1016Z" fill="#35679A"/>
<path d="M13.1016 0.0234375C10.5304 0.0234375 8.01699 0.785874 5.87916 2.21433C3.74132 3.64279 2.07507 5.67311 1.09113 8.04855C0.107195 10.424 -0.150248 13.0379 0.35136 15.5596C0.852968 18.0814 2.0911 20.3977 3.90918 22.2158C5.72726 24.0339 8.04364 25.272 10.5654 25.7736C13.0871 26.2753 15.701 26.0178 18.0765 25.0339C20.4519 24.0499 22.4822 22.3837 23.9107 20.2458C25.3391 18.108 26.1016 15.5946 26.1016 13.0234C26.1016 9.57562 24.7319 6.26902 22.294 3.83105C19.856 1.39308 16.5494 0.0234375 13.1016 0.0234375ZM2.10157 13.0234C2.08029 12.6271 2.08029 12.2298 2.10157 11.8334L6.10157 15.0234L12.1016 9.88344V17.0234H2.81157C2.32861 15.7458 2.08783 14.3893 2.10157 13.0234ZM6.10157 13.0234L2.45157 10.1034C2.55274 9.73743 2.67291 9.37695 2.81157 9.02344H10.6016L6.10157 13.0234ZM13.1016 24.0234C11.2615 24.0319 9.44875 23.5786 7.82924 22.705C6.20973 21.8315 4.83522 20.5657 3.83157 19.0234H14.1016V7.02344H3.83157C4.87008 5.42772 6.30497 4.12887 7.99591 3.25392C9.68685 2.37897 11.5759 1.95789 13.4784 2.03186C15.3809 2.10583 17.2315 2.67231 18.8494 3.67591C20.4673 4.6795 21.7971 6.08584 22.7085 7.75737C23.62 9.42891 24.082 11.3084 24.0494 13.212C24.0168 15.1156 23.4907 16.9782 22.5225 18.6175C21.5542 20.2568 20.1771 21.6168 18.5258 22.5644C16.8745 23.5119 15.0054 24.0147 13.1016 24.0234Z" fill="#35679A"/>
</svg>
