<svg width="27" height="27" viewBox="0 0 27 27" fill="none" xmlns="http://www.w3.org/2000/svg">
<mask id="mask0" mask-type="alpha" maskUnits="userSpaceOnUse" x="0" y="0" width="27" height="27">
<path d="M0.101562 13.0234V26.0234H26.1016V0.0234375H0.101562V13.0234Z" fill="white"/>
</mask>
<g mask="url(#mask0)">
<path fill-rule="evenodd" clip-rule="evenodd" d="M13.1016 24.0734C7.00856 24.0734 2.05156 19.1164 2.05156 13.0234C2.05156 6.93044 7.00856 1.97344 13.1016 1.97344C19.1946 1.97344 24.1516 6.93044 24.1516 13.0234C24.1516 19.1164 19.1946 24.0734 13.1016 24.0734ZM13.1016 0.0234375C5.92156 0.0234375 0.101562 5.84344 0.101562 13.0234C0.101562 20.2034 5.92156 26.0234 13.1016 26.0234C20.2816 26.0234 26.1016 20.2034 26.1016 13.0234C26.1016 5.84344 20.2816 0.0234375 13.1016 0.0234375Z" fill="#70C8F2"/>
</g>
<path fill-rule="evenodd" clip-rule="evenodd" d="M13.0997 11.0742C12.0227 11.0742 11.1497 11.9472 11.1497 13.0242C11.1497 14.1012 12.0227 14.9742 13.0997 14.9742C14.1767 14.9742 15.0497 14.1012 15.0497 13.0242C15.0497 11.9472 14.1767 11.0742 13.0997 11.0742ZM18.9497 11.0742C17.8727 11.0742 16.9997 11.9472 16.9997 13.0242C16.9997 14.1012 17.8727 14.9742 18.9497 14.9742C20.0267 14.9742 20.8997 14.1012 20.8997 13.0242C20.8997 11.9472 20.0267 11.0742 18.9497 11.0742ZM7.12969 11.0742C6.05369 11.0742 5.17969 11.9472 5.17969 13.0242C5.17969 14.1012 6.05369 14.9742 7.12969 14.9742C8.20769 14.9742 9.07969 14.1012 9.07969 13.0242C9.07969 11.9472 8.20769 11.0742 7.12969 11.0742Z" fill="#70C8F2"/>
</svg>
