<svg width="27" height="27" viewBox="0 0 27 27" fill="none" xmlns="http://www.w3.org/2000/svg">
<path d="M13.1016 0.882812C5.92156 0.882812 0.101562 6.70281 0.101562 13.8828C0.101562 21.0628 5.92156 26.8828 13.1016 26.8828C20.2816 26.8828 26.1016 21.0628 26.1016 13.8828C26.1016 10.4348 24.7316 7.12881 22.2936 4.69081C19.8556 2.25281 16.5496 0.882812 13.1016 0.882812ZM13.1016 24.9328C6.99856 24.9328 2.05156 19.9858 2.05156 13.8828C2.05156 7.77981 6.99856 2.83281 13.1016 2.83281C19.2046 2.83281 24.1516 7.77981 24.1516 13.8828C24.1516 19.9858 19.2046 24.9328 13.1016 24.9328Z" fill="#0AC789"/>
<path d="M14.0108 17.7377H11.1508V20.0897H9.52581V17.7377H7.75781V16.3977H9.52581V15.2277H7.75781V13.8827H9.52581V7.66874H14.0758C15.2308 7.59874 16.3708 7.95874 17.2738 8.68274C18.0608 9.37274 18.4908 10.3857 18.4438 11.4327C18.5078 12.4877 18.0938 13.5157 17.3188 14.2327C16.4148 14.9427 15.2818 15.2967 14.1348 15.2277H11.1508V16.3977H14.0108V17.7377ZM11.1508 13.8827H14.1008C14.8308 13.9267 15.5508 13.6947 16.1168 13.2327C16.6008 12.7557 16.8528 12.0907 16.8068 11.4127C16.8318 10.7527 16.5708 10.1127 16.0908 9.65774C15.5488 9.19774 14.8508 8.96374 14.1408 9.00774H11.1508V13.8827Z" fill="#0AC789"/>
</svg>
