<svg width="43" height="42" viewBox="0 0 43 42" fill="none" xmlns="http://www.w3.org/2000/svg">
<path fill-rule="evenodd" clip-rule="evenodd" d="M21.3359 0.148438C21.9493 0.148438 22.5374 0.392076 22.9711 0.825754C23.4048 1.25943 23.6484 1.84762 23.6484 2.46094V20.9609C23.6484 21.5743 23.4048 22.1624 22.9711 22.5961C22.5374 23.0298 21.9493 23.2734 21.3359 23.2734H2.83594C2.22262 23.2734 1.63443 23.0298 1.20075 22.5961C0.767076 22.1624 0.523438 21.5743 0.523438 20.9609C0.523438 20.3476 0.767076 19.7594 1.20075 19.3258C1.63443 18.8921 2.22262 18.6484 2.83594 18.6484H19.0234V2.46094C19.0234 1.84762 19.2671 1.25943 19.7008 0.825754C20.1344 0.392076 20.7226 0.148437 21.3359 0.148438Z" fill="#758AA0"/>
<path fill-rule="evenodd" clip-rule="evenodd" d="M19.0234 20.9609C19.0234 20.3476 19.2671 19.7594 19.7008 19.3258C20.1344 18.8921 20.7226 18.6484 21.3359 18.6484H39.8359C40.4493 18.6484 41.0374 18.8921 41.4711 19.3258C41.9048 19.7594 42.1484 20.3476 42.1484 20.9609C42.1484 21.5743 41.9048 22.1624 41.4711 22.5961C41.0374 23.0298 40.4493 23.2734 39.8359 23.2734H23.6484V39.4609C23.6484 40.0743 23.4048 40.6624 22.9711 41.0961C22.5374 41.5298 21.9493 41.7734 21.3359 41.7734C20.7226 41.7734 20.1344 41.5298 19.7008 41.0961C19.2671 40.6624 19.0234 40.0743 19.0234 39.4609V20.9609Z" fill="#758AA0"/>
</svg>
