<svg width="22" height="19" viewBox="0 0 22 19" fill="none" xmlns="http://www.w3.org/2000/svg">
<path d="M1.28516 2.49609V7.66706H6.45612" stroke-width="2" stroke-linecap="round" stroke-linejoin="round"/>
<path d="M20.2452 16.2862V11.1152H15.0742" stroke-width="2" stroke-linecap="round" stroke-linejoin="round"/>
<path d="M18.0822 6.80564C17.6451 5.57046 16.9022 4.46613 15.9229 3.5957C14.9436 2.72527 13.7597 2.1171 12.4818 1.82795C11.2038 1.5388 9.87348 1.57809 8.61483 1.94216C7.35619 2.30622 6.21028 2.98319 5.28403 3.9099L1.28516 7.66747M20.2454 11.1148L16.2465 14.8723C15.3202 15.7991 14.1743 16.476 12.9157 16.8401C11.657 17.2042 10.3267 17.2434 9.04874 16.9543C7.77081 16.6651 6.58695 16.057 5.60762 15.1866C4.6283 14.3161 3.88543 13.2118 3.44834 11.9766" stroke-width="2" stroke-linecap="round" stroke-linejoin="round"/>
</svg>
