<svg width="18" height="20" viewBox="0 0 18 20" fill="none" xmlns="http://www.w3.org/2000/svg">
<path fill-rule="evenodd" clip-rule="evenodd" d="M7.19136 3.19136C7.31638 3.06633 7.48595 2.99609 7.66276 2.99609H10.9961C11.1729 2.99609 11.3425 3.06633 11.4675 3.19136C11.5925 3.31638 11.6628 3.48595 11.6628 3.66276V4.32943H6.99609V3.66276C6.99609 3.48595 7.06633 3.31638 7.19136 3.19136ZM13.6628 3.66276V4.32943H15.1628C15.175 4.32943 15.1871 4.32965 15.1992 4.33008H16.8301C17.3824 4.33008 17.8301 4.77779 17.8301 5.33008C17.8301 5.88236 17.3824 6.33008 16.8301 6.33008H16.1628V16.9961C16.1628 17.7033 15.8818 18.3816 15.3817 18.8817C14.8816 19.3818 14.2033 19.6628 13.4961 19.6628H5.16276C4.45552 19.6628 3.77724 19.3818 3.27714 18.8817C2.77705 18.3816 2.49609 17.7033 2.49609 16.9961V6.33008H1.83008C1.27779 6.33008 0.830078 5.88236 0.830078 5.33008C0.830078 4.77779 1.27779 4.33008 1.83008 4.33008H3.45967C3.47176 4.32965 3.4839 4.32943 3.49609 4.32943H4.99609V3.66276C4.99609 2.95552 5.27705 2.27724 5.77714 1.77714C6.27724 1.27705 6.95552 0.996094 7.66276 0.996094H10.9961C11.7033 0.996094 12.3816 1.27705 12.8817 1.77714C13.3818 2.27724 13.6628 2.95552 13.6628 3.66276ZM4.49609 6.33008V16.9961C4.49609 17.1729 4.56633 17.3425 4.69136 17.4675C4.81638 17.5925 4.98595 17.6628 5.16276 17.6628H13.4961C13.6729 17.6628 13.8425 17.5925 13.9675 17.4675C14.0925 17.3425 14.1628 17.1729 14.1628 16.9961V6.33008H4.49609Z"/>
</svg>
