<svg width="137" height="47" fill="none" xmlns="http://www.w3.org/2000/svg"><path fill-rule="evenodd" clip-rule="evenodd" d="M.82 46.343h71.59V.887H.82v45.456z" fill="#FFFFFE"/><path fill-rule="evenodd" clip-rule="evenodd" d="M2.013 45.177h69.205v-6.204H2.012v6.204z" fill="#F1AD2B"/><path fill-rule="evenodd" clip-rule="evenodd" d="M2.013 8.284h69.205V2.08H2.012v6.204zm34.006 6.835L32.37 32.173h-4.413l3.648-17.054h4.413zM54.58 26.131l2.322-6.405 1.335 6.405H54.58h.002zm4.924 6.042h4.08L60.02 15.119h-3.763c-.849 0-1.563.492-1.879 1.25l-6.62 15.805h4.633l.92-2.547h5.66l.534 2.546zm-11.517-5.568c.018-4.5-6.223-4.75-6.181-6.76.014-.612.596-1.262 1.87-1.43.633-.08 2.376-.147 4.352.764l.773-3.617c-1.062-.385-2.428-.754-4.127-.754-4.361 0-7.43 2.316-7.455 5.636-.027 2.455 2.192 3.825 3.861 4.642 1.72.836 2.297 1.372 2.29 2.119-.012 1.145-1.373 1.65-2.64 1.67-2.219.035-3.505-.6-4.53-1.078l-.801 3.739c1.032.473 2.934.884 4.904.905 4.637 0 7.67-2.29 7.684-5.836zM29.714 15.12l-7.148 17.054h-4.664l-3.517-13.61c-.214-.836-.4-1.144-1.049-1.498-1.06-.577-2.812-1.116-4.352-1.45l.104-.496h7.507c.957 0 1.817.636 2.036 1.738l1.858 9.87 4.59-11.608h4.635z" fill="#182E66"/><path d="M89.557 45.995v-2.992a1.78 1.78 0 00-1.13-1.783 1.762 1.762 0 00-.737-.115 1.834 1.834 0 00-1.668.849 1.74 1.74 0 00-1.568-.849 1.566 1.566 0 00-1.39.71v-.59H82.03v4.77h1.042v-2.624a1.12 1.12 0 01.284-.91c.225-.244.546-.376.878-.357.685 0 1.033.449 1.033 1.257v2.654h1.043v-2.643a1.122 1.122 0 011.16-1.268c.705 0 1.043.449 1.043 1.257v2.654l1.043-.02zm15.422-4.77h-1.697v-1.447h-1.042v1.447h-.944v.949h.964v2.195c0 1.108.427 1.766 1.648 1.766.456.002.904-.126 1.291-.369l-.298-.888a1.9 1.9 0 01-.913.27c-.497 0-.685-.32-.685-.799v-2.175h1.687l-.011-.949zm8.807-.12a1.402 1.402 0 00-1.25.7v-.58h-1.023v4.77h1.032v-2.673c0-.79.339-1.228.993-1.228.221-.004.44.037.645.12l.319-.998a2.202 2.202 0 00-.736-.131l.02.021zm-13.313.5a3.537 3.537 0 00-1.937-.5c-1.201 0-1.984.58-1.984 1.527 0 .78.575 1.258 1.638 1.408l.496.069c.566.08.833.23.833.5 0 .368-.377.578-1.081.578a2.518 2.518 0 01-1.58-.5l-.495.81c.6.422 1.321.64 2.054.618 1.37 0 2.165-.648 2.165-1.556 0-.909-.626-1.278-1.658-1.427l-.496-.07c-.448-.06-.805-.15-.805-.47 0-.32.339-.558.903-.558a3.05 3.05 0 011.49.41l.457-.84zm27.655-.5a1.4 1.4 0 00-1.251.7v-.58h-1.023v4.77h1.033v-2.673c0-.79.338-1.228.992-1.228.221-.004.441.037.645.12l.319-.998a2.2 2.2 0 00-.735-.131l.019.021h.001zM114.825 43.6a2.415 2.415 0 00.716 1.81 2.392 2.392 0 001.815.686 2.475 2.475 0 001.707-.57l-.496-.838a2.07 2.07 0 01-1.241.43 1.53 1.53 0 01-1.401-1.528 1.53 1.53 0 011.401-1.527c.448.006.885.156 1.241.43l.496-.838a2.475 2.475 0 00-1.707-.57 2.39 2.39 0 00-2.364 1.515 2.416 2.416 0 00-.168.98v.02h.001zm9.668 0v-2.375h-1.032v.58a1.798 1.798 0 00-1.488-.7 2.488 2.488 0 00-2.483 2.495 2.476 2.476 0 001.53 2.304c.302.126.626.191.953.192a1.798 1.798 0 001.488-.7v.58h1.032V43.6zm-3.841 0a1.44 1.44 0 011.485-1.355 1.439 1.439 0 011.381 1.463 1.435 1.435 0 01-.913 1.319 1.439 1.439 0 01-1.566-.347 1.432 1.432 0 01-.387-1.08zm-12.46-2.495a2.487 2.487 0 00-2.447 2.53 2.504 2.504 0 00.748 1.752 2.497 2.497 0 001.769.709 2.874 2.874 0 001.97-.649l-.496-.769a2.252 2.252 0 01-1.38.5 1.317 1.317 0 01-1.42-1.168h3.524v-.4c0-1.496-.923-2.495-2.253-2.495l-.015-.01zm0 .929a1.178 1.178 0 011.201 1.157h-2.481a1.222 1.222 0 011.26-1.157h.02zm25.867 1.577v-4.302h-.993v2.495a1.79 1.79 0 00-1.488-.699 2.492 2.492 0 00-2.295 1.542 2.49 2.49 0 00-.187.953 2.492 2.492 0 002.482 2.496 1.794 1.794 0 001.488-.7v.58h.994V43.61h-.001zm1.723 1.69a.474.474 0 01.476.562.464.464 0 01-.286.343.466.466 0 01-.19.04.499.499 0 01-.447-.29.472.472 0 01.462-.654h-.015zm0 .844a.354.354 0 00.259-.11.371.371 0 000-.498.36.36 0 00-.402-.08.357.357 0 00-.12.08.372.372 0 000 .499.362.362 0 00.12.08.343.343 0 00.158.029h-.015zm.03-.593a.197.197 0 01.129.04.125.125 0 01.044.104.118.118 0 01-.034.09.174.174 0 01-.105.044l.144.165h-.113l-.135-.163h-.043v.163h-.095v-.439l.207-.004h.001zm-.109.084v.12h.109c.02.006.04.006.059 0a.045.045 0 000-.045.044.044 0 000-.044.104.104 0 00-.059 0l-.109-.031zm-5.461-2.025a1.437 1.437 0 011.485-1.357 1.44 1.44 0 011.126 2.262 1.433 1.433 0 01-1.493.586 1.432 1.432 0 01-1.118-1.491zm-34.862 0v-2.386h-1.033v.58a1.798 1.798 0 00-1.49-.7 2.49 2.49 0 00-2.481 2.495 2.488 2.488 0 002.482 2.496 1.8 1.8 0 001.49-.7v.58h1.032V43.61zm-3.843 0a1.437 1.437 0 011.485-1.357 1.439 1.439 0 011.382 1.464 1.438 1.438 0 01-1.427 1.42 1.423 1.423 0 01-1.368-.944 1.437 1.437 0 01-.082-.583h.011z" fill="#231F20"/><path d="M100.227 4.803h15.636V33.05h-15.636V4.803z" fill="#FF5F00"/><path d="M101.217 18.93a17.965 17.965 0 016.826-14.127C100.716-.986 90.193-.142 83.871 6.74c-6.323 6.88-6.323 17.492 0 24.374 6.322 6.882 16.845 7.726 24.172 1.937a17.97 17.97 0 01-6.827-14.122h.001z" fill="#EB001B"/><path d="M136.958 18.93c0 6.878-3.907 13.153-10.061 16.157a17.795 17.795 0 01-18.854-2.036 17.996 17.996 0 006.828-14.123 18.011 18.011 0 00-6.828-14.125 17.794 17.794 0 0118.854-2.036c6.154 3.006 10.061 9.28 10.062 16.158v.005h-.001zm-1.707 11.514v-.899h.234v-.185h-.591v.185h.253v.9h.104zm1.147 0V29.36h-.179l-.208.774-.209-.776h-.159v1.086h.129v-.813l.194.704h.134l.194-.704v.82l.104-.007z" fill="#F79E1B"/></svg>