<svg width="50" height="66" fill="none" xmlns="http://www.w3.org/2000/svg"><path d="M37.086 32.445V36c0 .838-.69 1.523-1.531 1.523H14.117A1.532 1.532 0 0112.586 36v-3.555c0-.838.689-1.523 1.531-1.523h21.438c.842 0 1.53.685 1.53 1.523zm-1.531 9.14H14.117c-.842 0-1.531.687-1.531 1.524v3.555c0 .838.689 1.523 1.531 1.523h21.438a1.53 1.53 0 001.53-1.523V43.11c0-.837-.688-1.523-1.53-1.523zm13.78-23.879v42.161c0 3.364-2.743 6.094-6.124 6.094H6.46c-3.382 0-6.125-2.73-6.125-6.094V7.055C.336 3.69 3.079.96 6.46.96h26.044a6.14 6.14 0 014.326 1.79l10.706 10.651a6.056 6.056 0 011.799 4.304zM33.004 7.55v9.66h9.71l-9.71-9.66zM43.21 59.867V23.305H29.94a3.047 3.047 0 01-3.063-3.047V7.055H6.46v52.812h36.75z" fill="#fff"/></svg>