<svg width="27" height="35" fill="none" xmlns="http://www.w3.org/2000/svg"><path d="M25.381 7.46l-5.68-5.57a3.283 3.283 0 00-2.296-.937H3.585C1.793.96.336 2.388.336 4.147v27.625c0 1.76 1.457 3.188 3.25 3.188h19.5c1.795 0 3.25-1.428 3.25-3.188V9.72c0-.844-.344-1.66-.954-2.258zm-2.56 2H17.67V4.406l5.153 5.054zM3.587 31.772V4.147H14.42v6.906c0 .884.725 1.594 1.625 1.594h7.042v19.125h-19.5zm16.94-9.542c-.825-.797-3.182-.578-4.36-.432-1.164-.697-1.943-1.66-2.492-3.075.264-1.069.684-2.696.366-3.718-.284-1.74-2.56-1.568-2.884-.392-.298 1.069-.027 2.556.474 4.456-.677 1.587-1.686 3.719-2.397 4.94-1.354.684-3.182 1.74-3.453 3.068-.224 1.05 1.76 3.666 5.152-2.072 1.517-.49 3.169-1.095 4.631-1.334 1.28.677 2.777 1.129 3.779 1.129 1.726 0 1.896-1.873 1.185-2.57zM7.115 27.396c.345-.91 1.658-1.959 2.058-2.324-1.287 2.012-2.058 2.37-2.058 2.324zm5.525-12.657c.5 0 .453 2.132.121 2.71-.297-.924-.29-2.71-.121-2.71zm-1.652 9.071c.656-1.122 1.218-2.457 1.672-3.632.562 1.002 1.28 1.806 2.038 2.357-1.408.286-2.634.87-3.71 1.275zm8.91-.332s-.339.399-2.526-.518c2.377-.172 2.77.359 2.526.518z" fill="#fff"/></svg>