<svg width="15" height="16" fill="none" xmlns="http://www.w3.org/2000/svg"><path d="M8.351 9.623a1.676 1.676 0 01-.54.42 1.547 1.547 0 01-1.3.026 1.66 1.66 0 01-.554-.4 1.839 1.839 0 01-.366-.605 1.966 1.966 0 01.023-1.42 1.82 1.82 0 01.385-.59m4.47 4.883a5.292 5.292 0 01-3.294 1.248c-3.882 0-6.1-4.847-6.1-4.847A10.978 10.978 0 013.88 4.74l6.589 7.197zm-4.458-8.3a4.652 4.652 0 011.164-.145c3.883 0 6.101 4.846 6.101 4.846a11.321 11.321 0 01-1.198 1.933L6.011 3.638zM1.074 1.676l12.202 13.327"/></svg>