<svg width="27" height="27" fill="none" xmlns="http://www.w3.org/2000/svg"><mask id="a" maskUnits="userSpaceOnUse" x="0" y="0" width="27" height="27"><path d="M.102 13.023v-13h26v26h-26v-13z" fill="#fff"/></mask><g mask="url(#a)"><path fill-rule="evenodd" clip-rule="evenodd" d="M13.102 24.073c-6.093 0-11.05-4.957-11.05-11.05 0-6.093 4.957-11.05 11.05-11.05 6.093 0 11.05 4.957 11.05 11.05 0 6.093-4.957 11.05-11.05 11.05zm0-24.05c-7.18 0-13 5.82-13 13s5.82 13 13 13 13-5.82 13-13-5.82-13-13-13z" fill="#E62C2E"/></g><path fill-rule="evenodd" clip-rule="evenodd" d="M18.01 8.777l-.664-.663a.709.709 0 00-.995 0l-3.257 3.26-3.238-3.24a.707.707 0 00-.995 0l-.664.664a.708.708 0 000 .996l3.24 3.24L8.2 16.266a.707.707 0 000 .995l.664.664c.274.274.72.274.995 0l3.236-3.233 3.243 3.242c.274.273.72.273.996 0l.662-.664a.707.707 0 000-.995l-3.242-3.24 3.257-3.26a.708.708 0 000-.996" fill="#E62C2E"/></svg>