<svg width="27" height="27" fill="none" xmlns="http://www.w3.org/2000/svg"><path d="M13.102.883c-7.18 0-13 5.82-13 13s5.82 13 13 13 13-5.82 13-13a13 13 0 00-13-13zm0 24.05c-6.103 0-11.05-4.947-11.05-11.05 0-6.103 4.947-11.05 11.05-11.05 6.103 0 11.05 4.947 11.05 11.05 0 6.103-4.947 11.05-11.05 11.05z" fill="#0AC789"/><path d="M14.01 17.738h-2.86v2.352H9.527v-2.352H7.758v-1.34h1.768v-1.17H7.758v-1.345h1.768V7.669h4.55a4.66 4.66 0 013.198 1.014 3.452 3.452 0 011.17 2.75 3.525 3.525 0 01-1.125 2.8 4.699 4.699 0 01-3.184.995H11.15v1.17h2.86v1.34zm-2.86-3.855h2.95c.73.044 1.45-.188 2.017-.65a2.334 2.334 0 00.69-1.82 2.3 2.3 0 00-.716-1.755 2.75 2.75 0 00-1.95-.65h-2.99v4.875z" fill="#0AC789"/></svg>