<svg width="27" height="27" fill="none" xmlns="http://www.w3.org/2000/svg"><mask id="a" maskUnits="userSpaceOnUse" x="0" y="0" width="27" height="27"><path d="M.102 13.023v13h26v-26h-26v13z" fill="#fff"/></mask><g mask="url(#a)"><path fill-rule="evenodd" clip-rule="evenodd" d="M13.102 24.073c-6.093 0-11.05-4.957-11.05-11.05 0-6.093 4.957-11.05 11.05-11.05 6.093 0 11.05 4.957 11.05 11.05 0 6.093-4.957 11.05-11.05 11.05zm0-24.05c-7.18 0-13 5.82-13 13s5.82 13 13 13 13-5.82 13-13-5.82-13-13-13z" fill="#70C8F2"/></g><path fill-rule="evenodd" clip-rule="evenodd" d="M13.1 11.074a1.95 1.95 0 100 3.9 1.95 1.95 0 000-3.9zm5.85 0a1.95 1.95 0 100 3.9 1.95 1.95 0 000-3.9zm-11.82 0a1.95 1.95 0 100 3.901 1.95 1.95 0 000-3.9z" fill="#70C8F2"/></svg>