<svg width="18" height="20" fill="none" xmlns="http://www.w3.org/2000/svg"><path clip-rule="evenodd" d="M7.191 3.191a.667.667 0 01.472-.195h3.333a.667.667 0 01.667.667v.666H6.996v-.666c0-.177.07-.347.195-.472zm6.472.472v.666h1.5l.036.001h1.631a1 1 0 110 2h-.667v10.666a2.667 2.667 0 01-2.667 2.667H5.163a2.667 2.667 0 01-2.667-2.667V6.33H1.83a1 1 0 110-2h3.166v-.667A2.667 2.667 0 017.663.996h3.333a2.667 2.667 0 012.667 2.667zM4.496 6.33v10.666a.667.667 0 00.667.667h8.333a.667.667 0 00.667-.667V6.33H4.496z"/></svg>